<?xml version="1.0" encoding="utf-8"?>
<!-- Svg Vector Icons : http://www.onlinewebfonts.com/icon -->
<!DOCTYPE svg PUBLIC "-//W3C//DTD SVG 1.1//EN" "http://www.w3.org/Graphics/SVG/1.1/DTD/svg11.dtd">
<svg version="1.1" xmlns="http://www.w3.org/2000/svg" xmlns:xlink="http://www.w3.org/1999/xlink" x="0px" y="0px" viewBox="0 0 1000 1000" enable-background="new 0 0 1000 1000" xml:space="preserve">
<metadata> Svg Vector Icons : http://www.onlinewebfonts.com/icon </metadata>
<g><g><path d="M906.4,392.6h-58.3L593.4,226c5.9-13,9.3-27.4,9.3-42.6c0-56.6-46.1-102.7-102.7-102.7s-102.7,46.1-102.7,102.7c0,15.2,3.3,29.6,9.3,42.6L151.9,392.6H93.6c-46.1,0-83.6,37.5-83.6,83.6v359.5c0,46.1,37.5,83.6,83.6,83.6l812.8,0c46.1,0,83.6-37.5,83.6-83.6V476.2C990,430.1,952.5,392.6,906.4,392.6z M500,122.9c33.4,0,60.6,27.2,60.6,60.6S533.4,244,500,244c-33.4,0-60.6-27.2-60.6-60.6C439.4,150,466.6,122.9,500,122.9z M431.6,260c18.2,16.2,42.1,26.1,68.4,26.1c26.2,0,50.2-9.9,68.4-26.1L771,392.6H229L431.6,260z M93.6,434.8h812.8c22.8,0,41.4,18.6,41.4,41.4v3.9H52.2v-3.9C52.2,453.3,70.8,434.8,93.6,434.8z M906.4,877.1l-812.8,0c-22.8,0-41.4-18.6-41.4-41.4V522.3h895.6v313.4C947.8,858.5,929.2,877.1,906.4,877.1z"/><path d="M215.7,569.1c-48.7,0-97.8,37.9-97.8,122.4c0,75,41.1,129.4,97.8,129.4c56.7,0,97.8-54.4,97.8-129.4C313.5,607,264.4,569.1,215.7,569.1z M215.7,778.8c-32.2,0-55.6-36.7-55.6-87.3c0-49.5,21.3-80.3,55.6-80.3c34.3,0,55.6,30.8,55.6,80.3C271.4,742.1,248,778.8,215.7,778.8z"/><path d="M371.8,569c-11.6,0-21.1,9.5-21.1,21.1v209.7c0,11.6,9.4,21.1,21.1,21.1c11.6,0,21.1-9.4,21.1-21.1v-42.2c19.8-0.8,38.7-3.4,55.6-11.4c30.4-14.4,45.8-42.3,45.8-82.7c0-32.2-7.9-55.6-24.1-71.6C446.1,568.2,400.6,567.8,371.8,569z M392.9,611.1c19.1,0,38,1.3,47.7,10.9c7.6,7.5,11.5,21.5,11.5,41.6c0,39-17.7,49.7-59.2,51.8V611.1z"/><path d="M643.5,611.3c11.6,0,21.1-9.4,21.1-21.1s-9.4-21.1-21.1-21.1h-93.6c-11.6,0-21.1,9.4-21.1,21.1v209.7c0,11.6,9.4,21.1,21.1,21.1h93.6c11.6,0,21.1-9.4,21.1-21.1c0-11.7-9.4-21.1-21.1-21.1H571V715h72.5c11.6,0,21.1-9.4,21.1-21.1c0-11.7-9.4-21.1-21.1-21.1H571v-61.5H643.5z"/><path d="M845.4,569.1c-11.6,0-21.1,9.4-21.1,21.1v130l-79.9-140.4c-4.7-8.3-14.5-12.4-23.7-10c-9.3,2.4-15.7,10.8-15.7,20.4v209.7c0,11.6,9.4,21.1,21.1,21.1c11.6,0,21.1-9.4,21.1-21.1v-130L827,810.3c3.8,6.7,10.9,10.7,18.3,10.7c1.8,0,3.6-0.2,5.4-0.7c9.3-2.4,15.7-10.8,15.7-20.4V590.2C866.5,578.5,857,569.1,845.4,569.1z"/></g><g></g><g></g><g></g><g></g><g></g><g></g><g></g><g></g><g></g><g></g><g></g><g></g><g></g><g></g><g></g></g>
</svg>